<?xml version="1.0" encoding="UTF-8"?>
<svg width="800" height="800" viewBox="0 0 800 800" xmlns="http://www.w3.org/2000/svg">
  <style>
    path {
      fill: url(#gradient);
    }
  </style>
  <defs>
    <linearGradient id="gradient" x1="0%" y1="0%" x2="100%" y2="100%">
      <stop offset="0%" style="stop-color:#00AEEF;stop-opacity:1" />
      <stop offset="50%" style="stop-color:#915EFF;stop-opacity:1" />
      <stop offset="100%" style="stop-color:#FF00FF;stop-opacity:1" />
    </linearGradient>
  </defs>
  <path d="M400 160C400 160 240 160 240 160 240 160 240 240 240 240 240 240 320 240 320 240 320 240 320 560 320 560 320 560 240 560 240 560 240 560 240 640 240 640 240 640 480 640 480 640 480 640 480 560 480 560 480 560 400 560 400 560 400 560 400 240 400 240 400 240 480 240 480 240 480 240 480 160 480 160 480 160 400 160 400 160M520 160C520 160 520 360 520 360 600 280 680 200 680 200 680 200 520 360 520 360 520 360 680 480 680 480 680 480 600 560 600 560 600 560 440 440 440 440 440 440 440 640 440 640 440 640 520 640 520 640 520 640 520 160 520 160" fill="url(#gradient)" />
</svg>
